<svg width="45" height="45" viewBox="0 0 45 45" fill="none" xmlns="http://www.w3.org/2000/svg">
<path d="M35.0008 20.7441L14.9752 0.718897C14.5121 0.255364 13.8938 0 13.2345 0C12.5752 0 11.957 0.255364 11.4938 0.718897L10.019 2.19327C9.05942 3.154 9.05942 4.71545 10.019 5.67471L26.835 22.4907L10.0004 39.3253C9.53722 39.7888 9.28149 40.4067 9.28149 41.0656C9.28149 41.7253 9.53722 42.3432 10.0004 42.8071L11.4751 44.2811C11.9387 44.7446 12.5566 45 13.2159 45C13.8751 45 14.4934 44.7446 14.9566 44.2811L35.0008 24.2376C35.4651 23.7726 35.7201 23.1518 35.7186 22.4918C35.7201 21.8292 35.4651 21.2087 35.0008 20.7441Z" fill="white" fill-opacity="0.39"/>
</svg>
