<svg width="45" height="45" viewBox="0 0 45 45" fill="none" xmlns="http://www.w3.org/2000/svg">
<path d="M9.99923 24.2559L30.0248 44.2811C30.488 44.7446 31.1063 45 31.7655 45C32.4248 45 33.0431 44.7446 33.5062 44.2811L34.981 42.8067C35.9406 41.846 35.9406 40.2846 34.981 39.3253L18.165 22.5093L34.9996 5.67471C35.4628 5.21118 35.7185 4.59325 35.7185 3.93436C35.7185 3.27473 35.4628 2.65681 34.9996 2.19291L33.5249 0.718895C33.0614 0.255364 32.4434 2.86318e-07 31.7842 3.43953e-07C31.1249 4.01587e-07 30.5066 0.255364 30.0435 0.718895L9.99923 20.7624C9.53497 21.2274 9.27997 21.8482 9.28143 22.5082C9.27997 23.1708 9.53497 23.7913 9.99923 24.2559Z" fill="white" fill-opacity="0.39"/>
</svg>
