<svg width="31" height="31" viewBox="0 0 31 31" fill="none" xmlns="http://www.w3.org/2000/svg">
<path d="M25.79 5.38994C23.4234 1.96481 19.6727 0 15.5004 0C11.328 0 7.57734 1.96481 5.21074 5.38994C2.85577 8.79776 2.312 13.1122 3.75326 16.9239C4.13876 17.9648 4.75155 18.9761 5.57027 19.9238L14.6752 30.6184C14.8811 30.8605 15.1828 31 15.5004 31C15.8179 31 16.1197 30.8606 16.3256 30.6184L25.4279 19.9267C26.2503 18.9736 26.8623 17.9634 27.2446 16.9308C28.6888 13.1122 28.145 8.79776 25.79 5.38994ZM25.2148 16.1716C24.92 16.9683 24.4387 17.756 23.7851 18.5136C23.7833 18.5154 23.7815 18.5172 23.78 18.5194L15.5004 28.2443L7.21563 18.5133C6.56239 17.7563 6.0811 16.9687 5.78339 16.1644C4.59147 13.0121 5.04381 9.44489 6.99379 6.62274C8.94987 3.79157 12.0506 2.16782 15.5004 2.16782C18.9501 2.16782 22.0505 3.79151 24.0066 6.62274C25.9569 9.44489 26.4097 13.0121 25.2148 16.1716Z" fill="white"/>
<path d="M15.5004 6.43127C12.1536 6.43127 9.43045 9.15407 9.43045 12.5012C9.43045 15.8484 12.1532 18.5712 15.5004 18.5712C18.8475 18.5712 21.5703 15.8484 21.5703 12.5012C21.5703 9.15443 18.8472 6.43127 15.5004 6.43127ZM15.5004 16.4033C13.3488 16.4033 11.5983 14.6528 11.5983 12.5012C11.5983 10.3496 13.3488 8.59903 15.5004 8.59903C17.652 8.59903 19.4025 10.3496 19.4025 12.5012C19.4025 14.6528 17.652 16.4033 15.5004 16.4033Z" fill="white"/>
</svg>
